<?xml version="1.0" encoding="UTF-8"?>
<!DOCTYPE svg PUBLIC "-//W3C//DTD SVG 1.1//EN" "http://www.w3.org/Graphics/SVG/1.1/DTD/svg11.dtd">
<svg xmlns="http://www.w3.org/2000/svg" version="1.1" width="256px" height="256px" style="shape-rendering:geometricPrecision; text-rendering:geometricPrecision; image-rendering:optimizeQuality; fill-rule:evenodd; clip-rule:evenodd" xmlns:xlink="http://www.w3.org/1999/xlink">
<g><path style="opacity:1" fill="#044676" d="M 169.5,18.5 C 169.062,18.4346 168.728,18.6012 168.5,19C 173.434,23.4262 177.767,28.2595 181.5,33.5C 180.206,32.7101 179.039,31.7101 178,30.5C 177.117,35.1478 177.95,39.4812 180.5,43.5C 179.833,43.8333 179.167,44.1667 178.5,44.5C 179.714,50.3192 181.714,55.8192 184.5,61C 183.552,61.4828 182.552,61.6495 181.5,61.5C 175.101,57.9683 168.434,54.9683 161.5,52.5C 107.522,36.8842 64.3557,52.2175 32,98.5C 26.8483,107.63 22.6816,117.13 19.5,127C 19.5699,127.765 19.9033,128.265 20.5,128.5C 19.1366,131.662 18.3033,134.996 18,138.5C 17.6174,139.056 17.1174,139.389 16.5,139.5C 10.9597,83.07 33.6264,42.57 84.5,18C 108.766,9.64561 133.432,8.31227 158.5,14C 162.307,15.4284 165.974,16.9284 169.5,18.5 Z"/></g>
<g><path style="opacity:1" fill="#0b1d35" d="M 161.5,52.5 C 168.434,54.9683 175.101,57.9683 181.5,61.5C 185.074,64.9658 189.074,67.9658 193.5,70.5C 193.476,63.7119 192.143,57.0452 189.5,50.5C 189.97,49.537 190.637,49.537 191.5,50.5C 197.786,59.6774 200.786,69.6774 200.5,80.5C 168.302,51.2058 131.302,43.2058 89.5,56.5C 94.0228,52.8843 99.3562,51.2176 105.5,51.5C 105.5,50.5 105.5,49.5 105.5,48.5C 117.819,47.5178 130.152,47.3511 142.5,48C 148.832,49.6669 155.166,51.1669 161.5,52.5 Z"/></g>
<g><path style="opacity:1" fill="#012b4f" d="M 181.5,33.5 C 182.167,34.5 182.833,35.5 183.5,36.5C 186.684,40.8684 189.351,45.5351 191.5,50.5C 190.637,49.537 189.97,49.537 189.5,50.5C 192.143,57.0452 193.476,63.7119 193.5,70.5C 189.074,67.9658 185.074,64.9658 181.5,61.5C 182.552,61.6495 183.552,61.4828 184.5,61C 181.714,55.8192 179.714,50.3192 178.5,44.5C 179.167,44.1667 179.833,43.8333 180.5,43.5C 177.95,39.4812 177.117,35.1478 178,30.5C 179.039,31.7101 180.206,32.7101 181.5,33.5 Z"/></g>
<g><path style="opacity:0.994" fill="#87c5e5" d="M 171.5,76.5 C 170.305,76.3225 169.138,75.9891 168,75.5C 164.225,77.9255 160.391,80.2588 156.5,82.5C 151.007,81.2396 146.341,82.7396 142.5,87C 141.207,87.49 139.873,87.6567 138.5,87.5C 138.067,90.2589 136.4,91.5922 133.5,91.5C 135.822,85.7097 139.488,80.8764 144.5,77C 153.022,71.738 162.022,67.5713 171.5,64.5C 171.5,68.5 171.5,72.5 171.5,76.5 Z"/></g>
<g><path style="opacity:0.999" fill="#a2d0de" d="M 169.5,18.5 C 214.397,38.4397 238.064,73.1064 240.5,122.5C 239.707,155.574 227.374,183.408 203.5,206C 200.953,208.054 198.286,209.887 195.5,211.5C 195.631,210.624 195.298,209.957 194.5,209.5C 191.718,210.516 189.051,211.516 186.5,212.5C 180.509,212.311 174.676,212.311 169,212.5C 161.591,209.772 154.091,207.272 146.5,205C 145.167,204 145.167,203 146.5,202C 153.15,199.01 159.484,195.51 165.5,191.5C 193.903,169.793 208.236,140.793 208.5,104.5C 208.825,79.9769 201.658,57.9769 187,38.5C 186.184,37.1772 185.017,36.5106 183.5,36.5C 182.833,35.5 182.167,34.5 181.5,33.5C 177.767,28.2595 173.434,23.4262 168.5,19C 168.728,18.6012 169.062,18.4346 169.5,18.5 Z"/></g>
<g><path style="opacity:1" fill="#052445" d="M 161.5,52.5 C 155.166,51.1669 148.832,49.6669 142.5,48C 130.152,47.3511 117.819,47.5178 105.5,48.5C 105.5,49.5 105.5,50.5 105.5,51.5C 99.3562,51.2176 94.0228,52.8843 89.5,56.5C 76.7053,62.4008 65.0387,70.0675 54.5,79.5C 40.6185,89.933 30.6185,103.266 24.5,119.5C 22.4082,122.088 21.0749,125.088 20.5,128.5C 19.9033,128.265 19.5699,127.765 19.5,127C 22.6816,117.13 26.8483,107.63 32,98.5C 64.3557,52.2175 107.522,36.8842 161.5,52.5 Z"/></g>
<g><path style="opacity:1" fill="#bddbe9" d="M 171.5,76.5 C 171.849,82.9678 171.183,89.3011 169.5,95.5C 166.085,95.2612 162.919,95.9278 160,97.5C 158.553,97.0548 157.22,96.3881 156,95.5C 153.98,96.0319 153.147,97.3652 153.5,99.5C 152.167,99.5 150.833,99.5 149.5,99.5C 149.402,96.8962 148.235,94.8962 146,93.5C 144.699,94.8932 143.199,95.3932 141.5,95C 142.167,94.3333 142.833,93.6667 143.5,93C 141.253,91.6578 139.587,89.8244 138.5,87.5C 139.873,87.6567 141.207,87.49 142.5,87C 146.341,82.7396 151.007,81.2396 156.5,82.5C 160.391,80.2588 164.225,77.9255 168,75.5C 169.138,75.9891 170.305,76.3225 171.5,76.5 Z"/></g>
<g><path style="opacity:1" fill="#566d8c" d="M 108.5,92.5 C 106.167,92.5 103.833,92.5 101.5,92.5C 101.649,93.552 101.483,94.552 101,95.5C 95.2943,100.745 89.1276,105.079 82.5,108.5C 82.6495,109.552 82.4828,110.552 82,111.5C 81.1107,110.112 80.6107,110.278 80.5,112C 80.7591,113.261 81.4258,114.261 82.5,115C 81.944,115.383 81.6107,115.883 81.5,116.5C 80.207,115.158 79.3736,113.491 79,111.5C 78.5399,99.4983 78.0399,87.4983 77.5,75.5C 77.364,71.3213 77.864,67.3213 79,63.5C 88.8123,73.2966 98.6456,82.9633 108.5,92.5 Z"/></g>
<g><path style="opacity:0.996" fill="#6381a6" d="M 108.5,92.5 C 112.771,95.1009 116.437,98.4342 119.5,102.5C 112.377,112.58 105.377,122.746 98.5,133C 96.0245,132.253 93.6911,130.919 91.5,129C 87.9531,124.959 84.6198,120.792 81.5,116.5C 81.6107,115.883 81.944,115.383 82.5,115C 81.4258,114.261 80.7591,113.261 80.5,112C 80.6107,110.278 81.1107,110.112 82,111.5C 82.4828,110.552 82.6495,109.552 82.5,108.5C 89.1276,105.079 95.2943,100.745 101,95.5C 101.483,94.552 101.649,93.552 101.5,92.5C 103.833,92.5 106.167,92.5 108.5,92.5 Z"/></g>
<g><path style="opacity:1" fill="#93bfd5" d="M 138.5,87.5 C 139.587,89.8244 141.253,91.6578 143.5,93C 142.833,93.6667 142.167,94.3333 141.5,95C 143.199,95.3932 144.699,94.8932 146,93.5C 148.235,94.8962 149.402,96.8962 149.5,99.5C 150.833,99.5 152.167,99.5 153.5,99.5C 153.147,97.3652 153.98,96.0319 156,95.5C 157.22,96.3881 158.553,97.0548 160,97.5C 162.919,95.9278 166.085,95.2612 169.5,95.5C 165.755,104.58 160.088,112.246 152.5,118.5C 151.624,118.631 150.957,118.298 150.5,117.5C 153.578,112.219 151.911,110.219 145.5,111.5C 145.227,109.549 145.893,108.049 147.5,107C 146.027,106.29 145.36,105.124 145.5,103.5C 142.639,103.342 139.972,104.008 137.5,105.5C 135.912,104.99 134.745,103.99 134,102.5C 133.29,103.973 132.124,104.64 130.5,104.5C 130.5,109.167 130.5,113.833 130.5,118.5C 126.544,118.208 122.877,117.875 119.5,117.5C 124.154,108.86 128.821,100.194 133.5,91.5C 136.4,91.5922 138.067,90.2589 138.5,87.5 Z"/></g>
<g><path style="opacity:1" fill="#7da4cd" d="M 152.5,118.5 C 150.206,122.127 147.54,125.461 144.5,128.5C 142.801,128.66 141.134,128.494 139.5,128C 143.332,124.324 144.999,119.824 144.5,114.5C 141.148,113.992 138.148,112.658 135.5,110.5C 133.519,111.105 133.185,112.105 134.5,113.5C 133.994,116.391 132.994,119.058 131.5,121.5C 126.565,122.448 121.565,122.781 116.5,122.5C 117.11,120.566 118.11,118.899 119.5,117.5C 122.877,117.875 126.544,118.208 130.5,118.5C 130.5,113.833 130.5,109.167 130.5,104.5C 132.124,104.64 133.29,103.973 134,102.5C 134.745,103.99 135.912,104.99 137.5,105.5C 139.972,104.008 142.639,103.342 145.5,103.5C 145.36,105.124 146.027,106.29 147.5,107C 145.893,108.049 145.227,109.549 145.5,111.5C 151.911,110.219 153.578,112.219 150.5,117.5C 150.957,118.298 151.624,118.631 152.5,118.5 Z"/></g>
<g><path style="opacity:1" fill="#18afd6" d="M 173.5,215.5 C 178.071,215.023 182.404,214.023 186.5,212.5C 189.051,211.516 191.718,210.516 194.5,209.5C 195.298,209.957 195.631,210.624 195.5,211.5C 175.582,226.77 152.915,234.77 127.5,235.5C 78.5024,232.957 43.669,209.623 23,165.5C 19.5775,157.143 17.4108,148.477 16.5,139.5C 17.1174,139.389 17.6174,139.056 18,138.5C 18.3033,134.996 19.1366,131.662 20.5,128.5C 21.0749,125.088 22.4082,122.088 24.5,119.5C 25.2389,119.631 25.9056,119.464 26.5,119C 28.1704,116.405 30.0037,113.905 32,111.5C 37.6759,106.99 42.8425,101.99 47.5,96.5C 46.7899,114.428 49.2899,131.761 55,148.5C 78.5922,198.067 118.092,220.4 173.5,215.5 Z"/></g>
<g><path style="opacity:1" fill="#6382ab" d="M 144.5,128.5 C 143.5,130.167 142.167,131.5 140.5,132.5C 134.035,127.579 127.368,127.412 120.5,132C 118.481,135.014 116.148,137.68 113.5,140C 111.722,140.704 109.888,141.204 108,141.5C 106.624,141.316 105.791,140.649 105.5,139.5C 108.807,133.541 112.473,127.875 116.5,122.5C 121.565,122.781 126.565,122.448 131.5,121.5C 132.994,119.058 133.994,116.391 134.5,113.5C 133.185,112.105 133.519,111.105 135.5,110.5C 138.148,112.658 141.148,113.992 144.5,114.5C 144.999,119.824 143.332,124.324 139.5,128C 141.134,128.494 142.801,128.66 144.5,128.5 Z"/></g>
<g><path style="opacity:0.994" fill="#1976a4" d="M 54.5,79.5 C 46.4991,114.154 53.3325,145.487 75,173.5C 76.7038,175.373 78.5372,177.04 80.5,178.5C 92.9334,192.393 108.267,201.726 126.5,206.5C 131.948,209.873 137.948,212.04 144.5,213C 154.317,213.869 163.984,214.702 173.5,215.5C 118.092,220.4 78.5922,198.067 55,148.5C 49.2899,131.761 46.7899,114.428 47.5,96.5C 42.8425,101.99 37.6759,106.99 32,111.5C 30.0037,113.905 28.1704,116.405 26.5,119C 25.9056,119.464 25.2389,119.631 24.5,119.5C 30.6185,103.266 40.6185,89.933 54.5,79.5 Z"/></g>
<g><path style="opacity:0.999" fill="#495e76" d="M 140.5,132.5 C 132.053,143.448 122.72,153.615 112.5,163C 102.749,170.042 92.0823,175.209 80.5,178.5C 88.5976,165.294 96.9309,152.294 105.5,139.5C 105.791,140.649 106.624,141.316 108,141.5C 109.888,141.204 111.722,140.704 113.5,140C 116.148,137.68 118.481,135.014 120.5,132C 127.368,127.412 134.035,127.579 140.5,132.5 Z"/></g>
<g><path style="opacity:1" fill="#d4dfe7" d="M 155.5,126.5 C 162.316,131.754 167.483,138.42 171,146.5C 172.517,157.456 172.85,168.456 172,179.5C 154.898,180.824 137.731,180.824 120.5,179.5C 132.425,161.976 144.092,144.31 155.5,126.5 Z"/></g>
<g><path style="opacity:1" fill="#82b1c1" d="M 183.5,36.5 C 185.017,36.5106 186.184,37.1772 187,38.5C 201.658,57.9769 208.825,79.9769 208.5,104.5C 208.236,140.793 193.903,169.793 165.5,191.5C 165.631,190.624 165.298,189.957 164.5,189.5C 163.049,191.559 161.049,192.559 158.5,192.5C 196.571,164.333 210.571,126.999 200.5,80.5C 200.786,69.6774 197.786,59.6774 191.5,50.5C 189.351,45.5351 186.684,40.8684 183.5,36.5 Z"/></g>
<g><path style="opacity:1" fill="#5a9fb6" d="M 165.5,191.5 C 159.484,195.51 153.15,199.01 146.5,202C 145.167,203 145.167,204 146.5,205C 154.091,207.272 161.591,209.772 169,212.5C 174.676,212.311 180.509,212.311 186.5,212.5C 182.404,214.023 178.071,215.023 173.5,215.5C 163.984,214.702 154.317,213.869 144.5,213C 137.948,212.04 131.948,209.873 126.5,206.5C 137.973,203.569 148.64,198.902 158.5,192.5C 161.049,192.559 163.049,191.559 164.5,189.5C 165.298,189.957 165.631,190.624 165.5,191.5 Z"/></g>
</svg>
