<?xml version="1.0" encoding="UTF-8"?>
<!DOCTYPE svg PUBLIC "-//W3C//DTD SVG 1.1//EN" "http://www.w3.org/Graphics/SVG/1.1/DTD/svg11.dtd">
<svg xmlns="http://www.w3.org/2000/svg" version="1.1" width="400px" height="400px" style="shape-rendering:geometricPrecision; text-rendering:geometricPrecision; image-rendering:optimizeQuality; fill-rule:evenodd; clip-rule:evenodd" xmlns:xlink="http://www.w3.org/1999/xlink">
<g><path style="opacity:1" fill="#034676" d="M 257.5,26.5 C 261.983,30.1366 266.65,33.6366 271.5,37C 274.118,39.1057 276.118,41.6057 277.5,44.5C 275.637,42.2947 273.303,40.9613 270.5,40.5C 273.165,57.1472 275.832,73.8138 278.5,90.5C 275.564,89.5942 272.564,88.9275 269.5,88.5C 260.597,84.0524 251.263,80.7191 241.5,78.5C 238.697,77.0721 235.697,76.4054 232.5,76.5C 232.389,75.8826 232.056,75.3826 231.5,75C 156.861,63.6406 97.528,88.474 53.5,149.5C 48.3888,158.06 43.5555,166.727 39,175.5C 35.8999,183.688 33.3999,192.021 31.5,200.5C 30.6745,204.136 30.0078,207.803 29.5,211.5C 28.5489,212.919 28.2155,214.585 28.5,216.5C 25.3757,195.863 25.8757,175.196 30,154.5C 31.1853,156.377 32.1853,158.377 33,160.5C 32.6667,155.833 32.3333,151.167 32,146.5C 33.0761,143.64 33.9095,140.64 34.5,137.5C 35.1667,137.833 35.8333,138.167 36.5,138.5C 37.1168,135.245 38.2835,132.245 40,129.5C 41.2278,122.679 42.7278,116.012 44.5,109.5C 69.9601,62.2341 108.96,32.4008 161.5,20C 191.084,14.5366 220.417,15.5366 249.5,23C 252.401,23.8751 255.068,25.0418 257.5,26.5 Z"/></g>
<g><path style="opacity:1" fill="#013560" d="M 277.5,44.5 C 278.167,44.8333 278.833,45.1667 279.5,45.5C 281.075,49.0781 283.075,52.4114 285.5,55.5C 285.058,58.5759 284.725,61.7425 284.5,65C 285.516,65.5194 286.182,66.3527 286.5,67.5C 288.524,74.6086 290.69,81.6086 293,88.5C 293.72,90.1124 293.554,91.6124 292.5,93C 295.253,95.5883 296.919,98.755 297.5,102.5C 295.579,103.641 293.579,103.808 291.5,103C 284.535,97.5208 277.201,92.6875 269.5,88.5C 272.564,88.9275 275.564,89.5942 278.5,90.5C 275.832,73.8138 273.165,57.1472 270.5,40.5C 273.303,40.9613 275.637,42.2947 277.5,44.5 Z"/></g>
<g><path style="opacity:0.863" fill="#08182e" d="M 232.5,76.5 C 235.697,76.4054 238.697,77.0721 241.5,78.5C 241.953,79.4584 242.619,80.2917 243.5,81C 256.74,84.4689 269.074,89.9689 280.5,97.5C 281.578,99.4612 282.911,101.128 284.5,102.5C 236.774,74.9104 187.108,71.0771 135.5,91C 129.78,93.8599 124.114,96.6932 118.5,99.5C 117.391,98.71 116.058,98.21 114.5,98C 118.788,93.8628 123.455,90.3628 128.5,87.5C 138.127,83.3807 148.127,80.0473 158.5,77.5C 163.164,76.2774 167.831,76.2774 172.5,77.5C 187.727,74.2337 203.06,73.4004 218.5,75C 220.269,76.3139 222.269,77.1472 224.5,77.5C 227.115,76.7308 229.781,76.3975 232.5,76.5 Z"/></g>
<g><path style="opacity:1" fill="#6397ad" d="M 279.5,45.5 C 290.789,57.393 300.123,70.7264 307.5,85.5C 309.097,91.5875 310.931,97.5875 313,103.5C 313.998,109.155 314.832,114.822 315.5,120.5C 310.099,96.6992 300.099,75.0325 285.5,55.5C 283.075,52.4114 281.075,49.0781 279.5,45.5 Z"/></g>
<g><path style="opacity:1" fill="#062647" d="M 232.5,76.5 C 229.781,76.3975 227.115,76.7308 224.5,77.5C 222.269,77.1472 220.269,76.3139 218.5,75C 203.06,73.4004 187.727,74.2337 172.5,77.5C 167.831,76.2774 163.164,76.2774 158.5,77.5C 148.127,80.0473 138.127,83.3807 128.5,87.5C 123.455,90.3628 118.788,93.8628 114.5,98C 116.058,98.21 117.391,98.71 118.5,99.5C 106.673,106.65 95.6727,114.983 85.5,124.5C 85.1667,124.5 84.8333,124.5 84.5,124.5C 63.7983,140.857 48.4649,161.191 38.5,185.5C 37.6618,185.842 37.3284,186.508 37.5,187.5C 35.2263,191.714 33.2263,196.047 31.5,200.5C 33.3999,192.021 35.8999,183.688 39,175.5C 43.5555,166.727 48.3888,158.06 53.5,149.5C 97.528,88.474 156.861,63.6406 231.5,75C 232.056,75.3826 232.389,75.8826 232.5,76.5 Z"/></g>
<g><path style="opacity:1" fill="#08213e" d="M 285.5,55.5 C 300.099,75.0325 310.099,96.6992 315.5,120.5C 315.923,122.781 315.256,124.448 313.5,125.5C 304.097,117.422 294.43,109.756 284.5,102.5C 282.911,101.128 281.578,99.4612 280.5,97.5C 269.074,89.9689 256.74,84.4689 243.5,81C 242.619,80.2917 241.953,79.4584 241.5,78.5C 251.263,80.7191 260.597,84.0524 269.5,88.5C 277.201,92.6875 284.535,97.5208 291.5,103C 293.579,103.808 295.579,103.641 297.5,102.5C 296.919,98.755 295.253,95.5883 292.5,93C 293.554,91.6124 293.72,90.1124 293,88.5C 290.69,81.6086 288.524,74.6086 286.5,67.5C 286.182,66.3527 285.516,65.5194 284.5,65C 284.725,61.7425 285.058,58.5759 285.5,55.5 Z"/></g>
<g><path style="opacity:0.998" fill="#a3d0de" d="M 257.5,26.5 C 306.707,44.8699 341.874,78.2032 363,126.5C 385.027,189.304 376.693,247.637 338,301.5C 328.969,312.094 318.802,321.427 307.5,329.5C 307.53,328.503 307.03,327.836 306,327.5C 303.276,328.687 300.443,329.353 297.5,329.5C 293.684,328.599 290.017,327.099 286.5,325C 270.26,322.069 254.26,318.069 238.5,313C 240.936,312.794 242.602,311.627 243.5,309.5C 243.5,308.833 243.833,308.5 244.5,308.5C 282.614,286.222 307.78,253.889 320,211.5C 329.593,175.012 328.259,139.012 316,103.5C 313.823,97.1093 310.99,91.1093 307.5,85.5C 300.123,70.7264 290.789,57.393 279.5,45.5C 278.833,45.1667 278.167,44.8333 277.5,44.5C 276.118,41.6057 274.118,39.1057 271.5,37C 266.65,33.6366 261.983,30.1366 257.5,26.5 Z"/></g>
<g><path style="opacity:0.998" fill="#93cce7" d="M 268.5,118.5 C 265.924,119.056 263.257,119.223 260.5,119C 259.62,120.356 259.286,121.856 259.5,123.5C 256.336,123.558 253.336,124.224 250.5,125.5C 250.918,124.778 251.584,124.278 252.5,124C 249.95,121.704 246.95,120.37 243.5,120C 242.064,117.818 240.397,115.984 238.5,114.5C 247.487,108.844 257.153,104.51 267.5,101.5C 268.032,107.152 268.365,112.819 268.5,118.5 Z"/></g>
<g><path style="opacity:1" fill="#72badf" d="M 238.5,114.5 C 240.397,115.984 242.064,117.818 243.5,120C 246.95,120.37 249.95,121.704 252.5,124C 251.584,124.278 250.918,124.778 250.5,125.5C 249.15,126.483 248.15,127.816 247.5,129.5C 243.305,127.767 238.971,127.267 234.5,128C 233.257,129.154 232.257,130.488 231.5,132C 227.78,131.76 225.113,133.26 223.5,136.5C 221.396,136.707 219.063,136.874 216.5,137C 215.546,140.792 213.213,142.958 209.5,143.5C 214.93,129.614 224.596,119.948 238.5,114.5 Z"/></g>
<g><path style="opacity:0.995" fill="#285679" d="M 44.5,109.5 C 42.7278,116.012 41.2278,122.679 40,129.5C 38.2835,132.245 37.1168,135.245 36.5,138.5C 35.8333,138.167 35.1667,137.833 34.5,137.5C 33.9095,140.64 33.0761,143.64 32,146.5C 32.3333,151.167 32.6667,155.833 33,160.5C 32.1853,158.377 31.1853,156.377 30,154.5C 25.8757,175.196 25.3757,195.863 28.5,216.5C 28.573,218.027 27.9063,219.027 26.5,219.5C 26.5,217.833 26.5,216.167 26.5,214.5C 26.4154,203.12 25.4154,192.12 23.5,181.5C 25.6684,156.005 32.6684,132.005 44.5,109.5 Z"/></g>
<g><path style="opacity:0.999" fill="#556d8a" d="M 163.5,138.5 C 160.965,138.236 158.465,138.236 156,138.5C 155.517,139.448 155.351,140.448 155.5,141.5C 153.833,141.5 152.167,141.5 150.5,141.5C 150.5,142.833 150.5,144.167 150.5,145.5C 144.075,146.001 140.075,149.334 138.5,155.5C 133.208,155.726 130.375,158.393 130,163.5C 128.286,162.075 126.953,162.408 126,164.5C 125.667,163.833 125.333,163.167 125,162.5C 124.209,168.296 124.709,173.963 126.5,179.5C 124.672,176.865 123.505,173.865 123,170.5C 122.167,147.16 122.334,123.826 123.5,100.5C 137.183,112.851 150.516,125.517 163.5,138.5 Z"/></g>
<g><path style="opacity:1" fill="#cbe4f0" d="M 268.5,118.5 C 268.5,120.167 268.5,121.833 268.5,123.5C 266.801,123.34 265.134,123.506 263.5,124C 262.905,127.436 261.239,130.269 258.5,132.5C 253.926,133.82 249.26,134.487 244.5,134.5C 244.833,137.5 243.5,138.833 240.5,138.5C 240.297,136.61 240.963,135.11 242.5,134C 242,133.833 241.5,133.667 241,133.5C 238.648,135.775 235.814,136.941 232.5,137C 235.07,139.067 237.07,141.567 238.5,144.5C 237.985,146.225 237.318,147.892 236.5,149.5C 233.679,148.799 231.012,147.799 228.5,146.5C 226.792,146.703 225.459,147.536 224.5,149C 223.167,149.667 221.833,149.667 220.5,149C 222.116,148.385 223.449,147.385 224.5,146C 223.552,145.517 222.552,145.351 221.5,145.5C 221.714,143.856 221.38,142.356 220.5,141C 223.167,140.333 225.833,139.667 228.5,139C 228.957,138.586 229.291,138.086 229.5,137.5C 227.604,136.534 225.604,136.201 223.5,136.5C 225.113,133.26 227.78,131.76 231.5,132C 232.257,130.488 233.257,129.154 234.5,128C 238.971,127.267 243.305,127.767 247.5,129.5C 248.15,127.816 249.15,126.483 250.5,125.5C 253.336,124.224 256.336,123.558 259.5,123.5C 259.286,121.856 259.62,120.356 260.5,119C 263.257,119.223 265.924,119.056 268.5,118.5 Z"/></g>
<g><path style="opacity:1" fill="#abcdde" d="M 268.5,123.5 C 268.396,132.49 267.062,141.157 264.5,149.5C 264.631,148.761 264.464,148.094 264,147.5C 261.931,148.264 259.764,148.764 257.5,149C 255.697,149.637 254.364,150.803 253.5,152.5C 251.257,153.474 248.924,153.808 246.5,153.5C 246.5,152.167 246.5,150.833 246.5,149.5C 242.225,149.602 239.558,151.769 238.5,156C 236.735,156.64 235.068,156.473 233.5,155.5C 233.88,152.208 232.547,149.875 229.5,148.5C 228.749,149.376 228.249,150.376 228,151.5C 227.586,151.043 227.086,150.709 226.5,150.5C 223.934,151.964 221.267,153.131 218.5,154C 220.256,154.202 221.922,154.702 223.5,155.5C 224.711,156.72 224.711,157.887 223.5,159C 219.165,159.263 214.832,159.097 210.5,158.5C 210.5,156.833 210.5,155.167 210.5,153.5C 208.5,153.5 206.5,153.5 204.5,153.5C 205.659,149.849 207.326,146.515 209.5,143.5C 213.213,142.958 215.546,140.792 216.5,137C 219.063,136.874 221.396,136.707 223.5,136.5C 225.604,136.201 227.604,136.534 229.5,137.5C 229.291,138.086 228.957,138.586 228.5,139C 225.833,139.667 223.167,140.333 220.5,141C 221.38,142.356 221.714,143.856 221.5,145.5C 222.552,145.351 223.552,145.517 224.5,146C 223.449,147.385 222.116,148.385 220.5,149C 221.833,149.667 223.167,149.667 224.5,149C 225.459,147.536 226.792,146.703 228.5,146.5C 231.012,147.799 233.679,148.799 236.5,149.5C 237.318,147.892 237.985,146.225 238.5,144.5C 237.07,141.567 235.07,139.067 232.5,137C 235.814,136.941 238.648,135.775 241,133.5C 241.5,133.667 242,133.833 242.5,134C 240.963,135.11 240.297,136.61 240.5,138.5C 243.5,138.833 244.833,137.5 244.5,134.5C 249.26,134.487 253.926,133.82 258.5,132.5C 261.239,130.269 262.905,127.436 263.5,124C 265.134,123.506 266.801,123.34 268.5,123.5 Z"/></g>
<g><path style="opacity:1" fill="#7bb4d2" d="M 264.5,149.5 C 262.523,157.456 258.523,164.122 252.5,169.5C 250.577,165.971 249.911,161.971 250.5,157.5C 248.857,157.48 247.524,158.147 246.5,159.5C 245.087,162.661 243.42,165.661 241.5,168.5C 239.228,167.559 237.228,166.226 235.5,164.5C 234.808,165.025 234.308,165.692 234,166.5C 232.554,164.059 231.721,161.392 231.5,158.5C 228.136,159.211 225.803,158.044 224.5,155C 227.119,154.849 229.453,154.015 231.5,152.5C 232.176,153.602 232.842,154.602 233.5,155.5C 235.068,156.473 236.735,156.64 238.5,156C 239.558,151.769 242.225,149.602 246.5,149.5C 246.5,150.833 246.5,152.167 246.5,153.5C 248.924,153.808 251.257,153.474 253.5,152.5C 254.364,150.803 255.697,149.637 257.5,149C 259.764,148.764 261.931,148.264 264,147.5C 264.464,148.094 264.631,148.761 264.5,149.5 Z"/></g>
<g><path style="opacity:1" fill="#96bed2" d="M 233.5,155.5 C 232.842,154.602 232.176,153.602 231.5,152.5C 229.453,154.015 227.119,154.849 224.5,155C 225.803,158.044 228.136,159.211 231.5,158.5C 231.721,161.392 232.554,164.059 234,166.5C 234.308,165.692 234.808,165.025 235.5,164.5C 237.228,166.226 239.228,167.559 241.5,168.5C 243.42,165.661 245.087,162.661 246.5,159.5C 247.524,158.147 248.857,157.48 250.5,157.5C 249.911,161.971 250.577,165.971 252.5,169.5C 243.868,181.097 234.535,192.097 224.5,202.5C 223.081,201.549 221.415,201.216 219.5,201.5C 220.927,198.507 222.26,195.34 223.5,192C 224.13,190.69 225.13,189.856 226.5,189.5C 231.465,189.202 234.132,186.535 234.5,181.5C 235.5,181.5 236.5,181.5 237.5,181.5C 238.138,179.54 238.138,177.707 237.5,176C 233.809,175.58 230.142,175.08 226.5,174.5C 225.68,170.842 227.013,168.509 230.5,167.5C 228.027,165.902 228.027,164.402 230.5,163C 226.691,161.412 222.691,161.078 218.5,162C 216.842,163.663 214.842,164.496 212.5,164.5C 212.5,163.5 212.5,162.5 212.5,161.5C 209.418,162.13 206.418,163.13 203.5,164.5C 204.479,167.083 205.146,169.749 205.5,172.5C 204.726,176.465 204.393,180.465 204.5,184.5C 201.781,184.397 199.115,184.731 196.5,185.5C 194.945,185.278 193.611,184.611 192.5,183.5C 190.684,184.735 189.017,184.735 187.5,183.5C 192.664,173.167 198.331,163.167 204.5,153.5C 206.5,153.5 208.5,153.5 210.5,153.5C 210.5,155.167 210.5,156.833 210.5,158.5C 214.832,159.097 219.165,159.263 223.5,159C 224.711,157.887 224.711,156.72 223.5,155.5C 221.922,154.702 220.256,154.202 218.5,154C 221.267,153.131 223.934,151.964 226.5,150.5C 227.086,150.709 227.586,151.043 228,151.5C 228.249,150.376 228.749,149.376 229.5,148.5C 232.547,149.875 233.88,152.208 233.5,155.5 Z"/></g>
<g><path style="opacity:1" fill="#0371a9" d="M 84.5,124.5 C 82.0892,130.003 80.4226,135.669 79.5,141.5C 70.891,148.606 62.7243,156.273 55,164.5C 54.6667,166.167 54.3333,167.833 54,169.5C 48.7225,174.986 43.5558,180.32 38.5,185.5C 48.4649,161.191 63.7983,140.857 84.5,124.5 Z"/></g>
<g><path style="opacity:1" fill="#048bbf" d="M 79.5,141.5 C 75.4075,164.905 75.7408,188.238 80.5,211.5C 76.9133,202.657 75.2466,193.324 75.5,183.5C 75.6665,174.161 75.4998,164.827 75,155.5C 63.8254,165.008 53.6588,175.508 44.5,187C 42.1874,188.518 39.854,188.684 37.5,187.5C 37.3284,186.508 37.6618,185.842 38.5,185.5C 43.5558,180.32 48.7225,174.986 54,169.5C 54.3333,167.833 54.6667,166.167 55,164.5C 62.7243,156.273 70.891,148.606 79.5,141.5 Z"/></g>
<g><path style="opacity:0.999" fill="#6381a6" d="M 163.5,138.5 C 171.779,145.11 179.445,152.444 186.5,160.5C 175.695,176.471 164.695,192.305 153.5,208C 152.5,208.667 151.5,208.667 150.5,208C 145,202.5 139.5,197 134,191.5C 130.727,187.948 128.227,183.948 126.5,179.5C 124.709,173.963 124.209,168.296 125,162.5C 125.333,163.167 125.667,163.833 126,164.5C 126.953,162.408 128.286,162.075 130,163.5C 130.375,158.393 133.208,155.726 138.5,155.5C 140.075,149.334 144.075,146.001 150.5,145.5C 150.5,144.167 150.5,142.833 150.5,141.5C 152.167,141.5 153.833,141.5 155.5,141.5C 155.351,140.448 155.517,139.448 156,138.5C 158.465,138.236 160.965,138.236 163.5,138.5 Z"/></g>
<g><path style="opacity:1" fill="#03a0ce" d="M 75.5,183.5 C 74.6745,179.018 74.1745,174.351 74,169.5C 73.1871,172.266 71.3538,173.933 68.5,174.5C 61.2964,180.538 54.6297,187.038 48.5,194C 44.5,195.333 41.8333,198 40.5,202C 39.1667,202 37.8333,202 36.5,202C 35.9288,203.205 35.2621,204.372 34.5,205.5C 33.8076,204.975 33.3076,204.308 33,203.5C 32.9964,206.792 31.8297,209.458 29.5,211.5C 30.0078,207.803 30.6745,204.136 31.5,200.5C 33.2263,196.047 35.2263,191.714 37.5,187.5C 39.854,188.684 42.1874,188.518 44.5,187C 53.6588,175.508 63.8254,165.008 75,155.5C 75.4998,164.827 75.6665,174.161 75.5,183.5 Z"/></g>
<g><path style="opacity:1" fill="#77a1cd" d="M 226.5,189.5 C 226.817,186.428 226.484,183.428 225.5,180.5C 221.243,177.217 216.576,174.884 211.5,173.5C 211.663,175.857 211.497,178.19 211,180.5C 209.669,184.662 207.502,188.328 204.5,191.5C 196.95,191.99 189.617,191.99 182.5,191.5C 183.383,188.296 185.05,185.629 187.5,183.5C 189.017,184.735 190.684,184.735 192.5,183.5C 193.611,184.611 194.945,185.278 196.5,185.5C 199.115,184.731 201.781,184.397 204.5,184.5C 204.393,180.465 204.726,176.465 205.5,172.5C 205.146,169.749 204.479,167.083 203.5,164.5C 206.418,163.13 209.418,162.13 212.5,161.5C 212.5,162.5 212.5,163.5 212.5,164.5C 214.842,164.496 216.842,163.663 218.5,162C 222.691,161.078 226.691,161.412 230.5,163C 228.027,164.402 228.027,165.902 230.5,167.5C 227.013,168.509 225.68,170.842 226.5,174.5C 230.142,175.08 233.809,175.58 237.5,176C 238.138,177.707 238.138,179.54 237.5,181.5C 236.5,181.5 235.5,181.5 234.5,181.5C 234.132,186.535 231.465,189.202 226.5,189.5 Z"/></g>
<g><path style="opacity:1" fill="#17b0d7" d="M 75.5,183.5 C 75.2466,193.324 76.9133,202.657 80.5,211.5C 81.0021,219.495 83.5021,226.828 88,233.5C 88.4955,235.473 88.6621,237.473 88.5,239.5C 89.5,239.5 90.5,239.5 91.5,239.5C 94.7953,249.134 99.7953,257.8 106.5,265.5C 107.485,267.772 108.319,270.105 109,272.5C 150.232,322.054 203.398,343.554 268.5,337C 276.531,335.853 284.531,334.519 292.5,333C 295.251,332.876 296.918,332.043 297.5,330.5C 297.5,330.167 297.5,329.833 297.5,329.5C 300.443,329.353 303.276,328.687 306,327.5C 307.03,327.836 307.53,328.503 307.5,329.5C 297.314,338.429 285.981,345.596 273.5,351C 204.439,379.209 140.772,370.209 82.5,324C 51.3792,295.93 32.7125,261.096 26.5,219.5C 27.9063,219.027 28.573,218.027 28.5,216.5C 28.2155,214.585 28.5489,212.919 29.5,211.5C 31.8297,209.458 32.9964,206.792 33,203.5C 33.3076,204.308 33.8076,204.975 34.5,205.5C 35.2621,204.372 35.9288,203.205 36.5,202C 37.8333,202 39.1667,202 40.5,202C 41.8333,198 44.5,195.333 48.5,194C 54.6297,187.038 61.2964,180.538 68.5,174.5C 71.3538,173.933 73.1871,172.266 74,169.5C 74.1745,174.351 74.6745,179.018 75.5,183.5 Z"/></g>
<g><path style="opacity:0.449" fill="#4b768c" d="M 23.5,181.5 C 25.4154,192.12 26.4154,203.12 26.5,214.5C 25.2395,211.742 24.4061,208.742 24,205.5C 23.5003,197.507 23.3336,189.507 23.5,181.5 Z"/></g>
<g><path style="opacity:1" fill="#6383ae" d="M 226.5,189.5 C 225.13,189.856 224.13,190.69 223.5,192C 222.26,195.34 220.927,198.507 219.5,201.5C 221.415,201.216 223.081,201.549 224.5,202.5C 223.167,204.5 221.5,206.167 219.5,207.5C 218.504,207.586 217.671,207.252 217,206.5C 216.64,204.579 215.806,202.912 214.5,201.5C 216.167,199.833 215.833,198.833 213.5,198.5C 208.854,198.214 204.188,198.547 199.5,199.5C 199.719,200.675 199.386,201.675 198.5,202.5C 194.534,203.089 190.867,204.422 187.5,206.5C 186.434,210.009 185.434,213.509 184.5,217C 178.965,220.136 172.965,221.303 166.5,220.5C 166.833,218.5 167.167,216.5 167.5,214.5C 172.265,206.626 177.265,198.959 182.5,191.5C 189.617,191.99 196.95,191.99 204.5,191.5C 207.502,188.328 209.669,184.662 211,180.5C 211.497,178.19 211.663,175.857 211.5,173.5C 216.576,174.884 221.243,177.217 225.5,180.5C 226.484,183.428 226.817,186.428 226.5,189.5 Z"/></g>
<g><path style="opacity:1" fill="#c9d3dc" d="M 267.5,231.5 C 261.303,235.431 254.969,239.098 248.5,242.5C 250.078,240.682 249.578,239.682 247,239.5C 243.221,241.157 239.388,242.323 235.5,243C 241.864,239.818 248.198,236.651 254.5,233.5C 256.836,231.927 256.836,230.594 254.5,229.5C 257.093,227.929 258.093,225.596 257.5,222.5C 255.4,222.477 253.567,223.144 252,224.5C 247.268,221.798 243.101,222.298 239.5,226C 237.603,227.11 235.77,227.276 234,226.5C 228.003,231 222.17,235.667 216.5,240.5C 225.826,226.52 235.159,212.52 244.5,198.5C 254.9,207.646 262.566,218.646 267.5,231.5 Z"/></g>
<g><path style="opacity:1" fill="#495d76" d="M 219.5,207.5 C 207.137,223.039 193.803,237.873 179.5,252C 163.546,264.644 145.879,273.477 126.5,278.5C 140.191,257.102 153.858,235.769 167.5,214.5C 167.167,216.5 166.833,218.5 166.5,220.5C 172.965,221.303 178.965,220.136 184.5,217C 185.434,213.509 186.434,210.009 187.5,206.5C 190.867,204.422 194.534,203.089 198.5,202.5C 199.386,201.675 199.719,200.675 199.5,199.5C 204.188,198.547 208.854,198.214 213.5,198.5C 215.833,198.833 216.167,199.833 214.5,201.5C 215.806,202.912 216.64,204.579 217,206.5C 217.671,207.252 218.504,207.586 219.5,207.5 Z"/></g>
<g><path style="opacity:1" fill="#dae3ea" d="M 248.5,242.5 C 245.717,244.067 243.051,245.9 240.5,248C 236.489,249.335 232.489,250.669 228.5,252C 232.247,253.438 232.08,254.938 228,256.5C 226.374,256.146 224.541,256.146 222.5,256.5C 224.154,254.127 225.487,251.46 226.5,248.5C 221.693,246.928 218.86,248.594 218,253.5C 212.033,260.728 204.866,266.394 196.5,270.5C 202.808,260.205 209.474,250.205 216.5,240.5C 222.17,235.667 228.003,231 234,226.5C 235.77,227.276 237.603,227.11 239.5,226C 243.101,222.298 247.268,221.798 252,224.5C 253.567,223.144 255.4,222.477 257.5,222.5C 258.093,225.596 257.093,227.929 254.5,229.5C 256.836,230.594 256.836,231.927 254.5,233.5C 248.198,236.651 241.864,239.818 235.5,243C 239.388,242.323 243.221,241.157 247,239.5C 249.578,239.682 250.078,240.682 248.5,242.5 Z"/></g>
<g><path style="opacity:1" fill="#85b3c4" d="M 307.5,85.5 C 310.99,91.1093 313.823,97.1093 316,103.5C 328.259,139.012 329.593,175.012 320,211.5C 307.78,253.889 282.614,286.222 244.5,308.5C 244.511,306.983 245.177,305.816 246.5,305C 244.981,305.331 243.648,305.164 242.5,304.5C 306.369,260.911 330.036,201.244 313.5,125.5C 315.256,124.448 315.923,122.781 315.5,120.5C 314.832,114.822 313.998,109.155 313,103.5C 310.931,97.5875 309.097,91.5875 307.5,85.5 Z"/></g>
<g><path style="opacity:1" fill="#bbc7d0" d="M 196.5,270.5 C 204.866,266.394 212.033,260.728 218,253.5C 218.86,248.594 221.693,246.928 226.5,248.5C 225.487,251.46 224.154,254.127 222.5,256.5C 224.541,256.146 226.374,256.146 228,256.5C 232.08,254.938 232.247,253.438 228.5,252C 232.489,250.669 236.489,249.335 240.5,248C 243.051,245.9 245.717,244.067 248.5,242.5C 247.412,244.583 246.412,246.749 245.5,249C 250.113,246.103 254.613,242.603 259,238.5C 259.374,239.416 259.874,240.25 260.5,241C 250.647,249.516 240.48,257.683 230,265.5C 228.396,264.932 227.73,263.932 228,262.5C 230.906,259.963 234.073,257.796 237.5,256C 236.833,255.833 236.167,255.667 235.5,255.5C 231.588,258.073 227.254,259.573 222.5,260C 219.924,260.782 217.924,262.282 216.5,264.5C 210.603,265.282 205.27,267.449 200.5,271C 198.934,271.765 197.601,271.598 196.5,270.5 Z"/></g>
<g><path style="opacity:0.98" fill="#dde8ef" d="M 267.5,231.5 C 268.139,236.003 268.806,240.503 269.5,245C 269.317,256.719 268.984,268.886 268.5,281.5C 242.51,282.557 216.51,282.724 190.5,282C 189.465,280.493 189.632,278.993 191,277.5C 192.697,274.98 194.53,272.647 196.5,270.5C 197.601,271.598 198.934,271.765 200.5,271C 205.27,267.449 210.603,265.282 216.5,264.5C 217.924,262.282 219.924,260.782 222.5,260C 227.254,259.573 231.588,258.073 235.5,255.5C 236.167,255.667 236.833,255.833 237.5,256C 234.073,257.796 230.906,259.963 228,262.5C 227.73,263.932 228.396,264.932 230,265.5C 240.48,257.683 250.647,249.516 260.5,241C 259.874,240.25 259.374,239.416 259,238.5C 254.613,242.603 250.113,246.103 245.5,249C 246.412,246.749 247.412,244.583 248.5,242.5C 254.969,239.098 261.303,235.431 267.5,231.5 Z"/></g>
<g><path style="opacity:1" fill="#89c2d3" d="M 243.5,309.5 C 242.602,311.627 240.936,312.794 238.5,313C 254.26,318.069 270.26,322.069 286.5,325C 290.017,327.099 293.684,328.599 297.5,329.5C 297.5,329.833 297.5,330.167 297.5,330.5C 292.548,331.492 287.548,332.158 282.5,332.5C 267.704,328.708 252.704,325.874 237.5,324C 233.497,323.338 230.164,321.505 227.5,318.5C 228.193,317.482 228.859,316.482 229.5,315.5C 233.981,313.007 238.647,311.007 243.5,309.5 Z"/></g>
<g><path style="opacity:1" fill="#15709e" d="M 84.5,124.5 C 84.8333,124.5 85.1667,124.5 85.5,124.5C 72.779,179.751 83.9457,229.418 119,273.5C 140.496,297.655 166.663,314.322 197.5,323.5C 200.16,325.497 203.16,326.997 206.5,328C 221.109,332.868 236.109,335.034 251.5,334.5C 260.173,334.666 268.84,334.5 277.5,334C 279.382,333.802 281.048,333.302 282.5,332.5C 287.548,332.158 292.548,331.492 297.5,330.5C 296.918,332.043 295.251,332.876 292.5,333C 284.531,334.519 276.531,335.853 268.5,337C 203.398,343.554 150.232,322.054 109,272.5C 108.319,270.105 107.485,267.772 106.5,265.5C 99.7953,257.8 94.7953,249.134 91.5,239.5C 90.5,239.5 89.5,239.5 88.5,239.5C 88.6621,237.473 88.4955,235.473 88,233.5C 83.5021,226.828 81.0021,219.495 80.5,211.5C 75.7408,188.238 75.4075,164.905 79.5,141.5C 80.4226,135.669 82.0892,130.003 84.5,124.5 Z"/></g>
<g><path style="opacity:1" fill="#5194ae" d="M 242.5,304.5 C 243.648,305.164 244.981,305.331 246.5,305C 245.177,305.816 244.511,306.983 244.5,308.5C 243.833,308.5 243.5,308.833 243.5,309.5C 238.647,311.007 233.981,313.007 229.5,315.5C 225.218,317.303 220.885,319.137 216.5,321C 215.62,322.356 215.286,323.856 215.5,325.5C 225.955,328.28 236.622,330.447 247.5,332C 248.858,332.934 250.192,333.768 251.5,334.5C 236.109,335.034 221.109,332.868 206.5,328C 203.16,326.997 200.16,325.497 197.5,323.5C 213.568,319.631 228.568,313.297 242.5,304.5 Z"/></g>
<g><path style="opacity:1" fill="#64aac1" d="M 229.5,315.5 C 228.859,316.482 228.193,317.482 227.5,318.5C 230.164,321.505 233.497,323.338 237.5,324C 252.704,325.874 267.704,328.708 282.5,332.5C 281.048,333.302 279.382,333.802 277.5,334C 268.84,334.5 260.173,334.666 251.5,334.5C 250.192,333.768 248.858,332.934 247.5,332C 236.622,330.447 225.955,328.28 215.5,325.5C 215.286,323.856 215.62,322.356 216.5,321C 220.885,319.137 225.218,317.303 229.5,315.5 Z"/></g>
</svg>
